<svg width="1820" height="561" viewBox="0 0 1820 561" fill="none" xmlns="http://www.w3.org/2000/svg">
<rect x="3.80463" y="0.707336" width="1927.22" height="63.073" transform="rotate(15 3.80463 0.707336)" fill="black"/>
<path d="M81.4535 58.6629C81.2603 59.3841 80.9978 59.9852 80.666 60.4663C80.3341 60.9475 79.945 61.336 79.4986 61.6318C79.0636 61.921 78.5746 62.1233 78.0317 62.2387C77.5001 62.3475 76.9265 62.3967 76.311 62.3863C75.7068 62.3694 75.073 62.301 74.4094 62.1812C73.7459 62.0614 73.0671 61.9084 72.3729 61.7225L58.8917 58.1102L63.8699 39.5312L77.1078 43.0783C77.6396 43.2208 78.1654 43.3858 78.6852 43.5734C79.214 43.7634 79.7049 43.9867 80.1579 44.2434C80.6132 44.491 81.0193 44.7785 81.376 45.106C81.7417 45.4359 82.0307 45.8177 82.243 46.2514C82.4643 46.6875 82.5942 47.1764 82.6326 47.7181C82.68 48.2622 82.6132 48.8723 82.432 49.5484C82.1084 50.7563 81.5536 51.6366 80.7678 52.1894C79.9845 52.7331 78.9214 52.9506 77.5785 52.842C78.4631 53.1467 79.1964 53.4929 79.7784 53.8808C80.3719 54.262 80.822 54.6918 81.1286 55.1701C81.4376 55.6393 81.6155 56.1653 81.6623 56.7478C81.7115 57.3214 81.6419 57.9598 81.4535 58.6629ZM77.3234 49.0346C77.3862 48.8002 77.4093 48.5697 77.3927 48.343C77.3786 48.1073 77.2986 47.883 77.1528 47.67C77.0069 47.457 76.785 47.2575 76.4871 47.0714C76.1891 46.8852 75.7878 46.7246 75.2829 46.5893L67.8865 44.6074L66.9517 48.0961L74.3482 50.0779C74.853 50.2132 75.2797 50.2792 75.6284 50.276C75.9771 50.2728 76.2666 50.22 76.497 50.1175C76.7273 50.0149 76.9064 49.8697 77.034 49.6817C77.1641 49.4846 77.2606 49.2689 77.3234 49.0346ZM76.5116 56.7155C76.6251 56.2918 76.6436 55.9345 76.567 55.6434C76.4928 55.3434 76.3206 55.0846 76.0503 54.8673C75.7825 54.6409 75.4112 54.44 74.9365 54.2645C74.4618 54.089 73.8864 53.9107 73.2103 53.7295L65.9626 51.7875L64.9083 55.7223L72.156 57.6644C72.8321 57.8455 73.4195 57.9788 73.9184 58.0641C74.4173 58.1495 74.8393 58.1611 75.1844 58.099C75.5295 58.0369 75.808 57.899 76.0199 57.6852C76.2342 57.4624 76.3981 57.1392 76.5116 56.7155ZM100.86 69.3556L101.349 67.5302C100.615 67.7102 99.8422 67.8365 99.0305 67.9088C98.2279 67.9836 97.4046 68.0094 96.5606 67.9861C95.7166 67.9629 94.8588 67.8828 93.9873 67.7459C93.1224 67.6204 92.2617 67.4429 91.4053 67.2135C90.4047 66.9454 89.461 66.591 88.5742 66.1505C87.6964 65.7124 86.9537 65.1849 86.3461 64.568C85.7385 63.9511 85.3056 63.2409 85.0474 62.4374C84.7983 61.6364 84.8066 60.7401 85.0723 59.7485C85.408 58.4955 86.0296 57.5461 86.9369 56.9003C87.8466 56.2455 89.0759 55.8406 90.6247 55.6856C92.1735 55.5305 94.0592 55.5962 96.282 55.8826C98.5137 56.1714 101.121 56.6284 104.103 57.2536L104.208 56.8615C104.29 56.555 104.29 56.2312 104.207 55.8903C104.127 55.5403 103.901 55.1947 103.529 54.8534C103.168 54.5055 102.633 54.1592 101.923 53.8144C101.223 53.4721 100.295 53.1464 99.1414 52.8372C98.231 52.5933 97.3162 52.4013 96.3972 52.2613C95.4897 52.1148 94.5995 52.0115 93.7266 51.9516C92.8628 51.894 92.0324 51.8744 91.2352 51.8927C90.438 51.9109 89.7061 51.9564 89.0393 52.0289L90.2349 47.5667C90.9094 47.5735 91.6593 47.6054 92.4847 47.6623C93.31 47.7192 94.1608 47.8071 95.0372 47.9259C95.9159 48.0358 96.7965 48.1751 97.6788 48.3439C98.5635 48.5037 99.4025 48.6898 100.196 48.9024C101.755 49.3203 103.158 49.8362 104.404 50.4503C105.653 51.0554 106.678 51.7551 107.479 52.5496C108.29 53.3465 108.85 54.2309 109.16 55.2028C109.478 56.177 109.484 57.2366 109.178 58.3814L105.877 70.6998L100.86 69.3556ZM103.132 60.8774C101.184 60.4327 99.5151 60.0967 98.1267 59.8696C96.7473 59.6449 95.5872 59.5032 94.6465 59.4443C93.7057 59.3855 92.9507 59.3909 92.3813 59.4606C91.8209 59.5326 91.3855 59.643 91.0752 59.7917C90.7648 59.9405 90.549 60.1145 90.428 60.314C90.3159 60.5158 90.2357 60.7069 90.1874 60.8872C90.1295 61.1035 90.1313 61.3311 90.1929 61.5698C90.257 61.7995 90.4127 62.0297 90.6601 62.2602C90.9165 62.4932 91.276 62.7199 91.7387 62.9405C92.2013 63.1611 92.8022 63.3704 93.5414 63.5685C94.3617 63.7883 95.1809 63.9402 95.999 64.0241C96.8171 64.108 97.6067 64.136 98.3678 64.1081C99.1313 64.0711 99.8594 63.986 100.552 63.8528C101.256 63.713 101.898 63.537 102.476 63.3249L103.132 60.8774ZM129.699 77.083C129.879 76.0492 129.873 75.1005 129.679 74.237C129.488 73.3645 129.164 72.5724 128.707 71.8607C128.259 71.1514 127.705 70.515 127.045 69.9515C126.393 69.3904 125.699 68.9 124.961 68.4801C124.226 68.0512 123.472 67.6899 122.701 67.3962C121.94 67.0959 121.222 66.8552 120.546 66.674L119.059 66.2755L117.07 73.6989L112.053 72.3547L117.031 53.7758L122.048 55.12L120.128 62.2865L121.155 62.5619C121.849 62.7479 122.59 62.8882 123.376 62.983C124.162 63.0777 124.956 63.1069 125.758 63.0706C126.569 63.0367 127.367 62.9267 128.151 62.7407C128.935 62.5547 129.669 62.2682 130.352 61.8813C131.035 61.4943 131.65 61.0021 132.197 60.4046C132.746 59.7981 133.185 59.0607 133.514 58.1924L138.626 59.562C138.272 60.5204 137.836 61.3552 137.317 62.0663C136.807 62.7799 136.242 63.3918 135.622 63.9021C135.014 64.4057 134.372 64.8182 133.696 65.1397C133.021 65.4611 132.349 65.7158 131.68 65.9037C131.014 66.0827 130.362 66.2075 129.725 66.2783C129.099 66.3425 128.522 66.3667 127.995 66.3511C128.599 66.6193 129.211 66.9522 129.829 67.3497C130.458 67.7406 131.06 68.2012 131.633 68.7315C132.208 69.2528 132.73 69.8468 133.199 70.5134C133.676 71.1825 134.068 71.9203 134.374 72.7268C134.679 73.5333 134.878 74.4128 134.971 75.3651C135.064 76.3175 135.01 77.3466 134.81 78.4525L129.699 77.083ZM139.567 79.727L144.545 61.1481L149.562 62.4923L144.583 81.0712L139.567 79.727ZM168.554 87.4942L171.344 77.0824C171.53 76.3883 171.64 75.7461 171.672 75.1558C171.707 74.5565 171.615 74.015 171.397 73.5314C171.19 73.0412 170.828 72.6107 170.309 72.2397C169.801 71.8622 169.097 71.5527 168.195 71.3111C167.51 71.1276 166.763 71.029 165.956 71.0154C165.159 70.9952 164.35 71.0393 163.529 71.1477C162.707 71.2562 161.904 71.4226 161.12 71.6471C160.344 71.874 159.635 72.1383 158.994 72.4399L155.871 84.0957L150.854 82.7515L155.833 64.1726L160.849 65.5168L160.168 68.0589C160.896 67.8674 161.663 67.6912 162.469 67.5305C163.278 67.3607 164.122 67.2391 165.002 67.1656C165.881 67.0921 166.796 67.086 167.746 67.1472C168.695 67.2085 169.671 67.3732 170.671 67.6413C171.924 67.977 173.001 68.4298 173.901 68.9996C174.813 69.5628 175.537 70.2156 176.072 70.9581C176.61 71.6915 176.953 72.5032 177.101 73.3931C177.26 74.2764 177.21 75.2048 176.949 76.1784L173.558 88.8348L168.554 87.4942ZM196.819 74.6476C198.64 75.1356 200.288 75.7462 201.763 76.4796C203.249 77.2064 204.581 77.9883 205.758 78.8253L204.54 83.3686C204.104 82.9425 203.597 82.5072 203.021 82.0629C202.453 81.6209 201.818 81.1949 201.117 80.7846C200.415 80.3744 199.648 79.9902 198.817 79.6322C197.985 79.2741 197.092 78.967 196.136 78.711C194.946 78.3921 193.887 78.2 192.957 78.1346C192.028 78.0691 191.209 78.0961 190.501 78.2155C189.793 78.3349 189.184 78.534 188.674 78.813C188.167 79.0829 187.738 79.4028 187.388 79.7727C187.038 80.1426 186.757 80.5408 186.546 80.9674C186.335 81.3939 186.173 81.8191 186.06 82.2428C185.961 82.6124 185.889 83.0232 185.845 83.4752C185.81 83.9296 185.839 84.401 185.93 84.8892C186.031 85.3799 186.217 85.8743 186.489 86.3723C186.762 86.8704 187.159 87.3536 187.681 87.822C188.211 88.2927 188.88 88.7375 189.685 89.1562C190.493 89.566 191.488 89.9291 192.669 90.2455C193.264 90.4049 193.787 90.5258 194.238 90.6081C194.69 90.6904 195.104 90.7483 195.482 90.7818C195.868 90.8177 196.231 90.8329 196.571 90.8273C196.919 90.8241 197.278 90.8188 197.647 90.8115L198.249 88.5668L192.624 87.0596L193.714 82.9895L204.356 85.841L201.813 95.3333C201.085 95.3799 200.281 95.3867 199.401 95.3538C198.533 95.3143 197.64 95.2393 196.723 95.1288C195.812 95.0297 194.905 94.8979 194.002 94.7333C193.1 94.5687 192.256 94.3813 191.472 94.1712C190.255 93.8451 189.109 93.4512 188.035 92.9894C186.961 92.5276 185.981 91.9995 185.097 91.4051C184.224 90.8041 183.457 90.1347 182.795 89.3969C182.142 88.6615 181.628 87.8571 181.253 86.9838C180.887 86.1129 180.671 85.1709 180.604 84.1578C180.549 83.1382 180.677 82.0469 180.989 80.8841C181.298 79.7302 181.74 78.728 182.316 77.8774C182.892 77.0269 183.565 76.3183 184.335 75.7518C185.114 75.1876 185.98 74.7528 186.931 74.4473C187.891 74.1443 188.903 73.9564 189.966 73.8838C191.04 73.8045 192.154 73.8323 193.306 73.9671C194.467 74.1044 195.638 74.3312 196.819 74.6476ZM240.813 101.363C240.62 102.084 240.357 102.685 240.025 103.167C239.694 103.648 239.305 104.036 238.858 104.332C238.423 104.621 237.934 104.824 237.391 104.939C236.86 105.048 236.286 105.097 235.67 105.087C235.066 105.07 234.432 105.001 233.769 104.881C233.105 104.762 232.427 104.609 231.732 104.423L218.251 100.81L223.229 82.2315L236.467 85.7785C236.999 85.921 237.525 86.0861 238.045 86.2737C238.574 86.4637 239.064 86.687 239.517 86.9436C239.973 87.1913 240.379 87.4788 240.735 87.8063C241.101 88.1361 241.39 88.5179 241.602 88.9516C241.824 89.3877 241.954 89.8766 241.992 90.4183C242.04 90.9624 241.973 91.5725 241.792 92.2486C241.468 93.4565 240.913 94.3369 240.127 94.8896C239.344 95.4333 238.281 95.6509 236.938 95.5423C237.823 95.8469 238.556 96.1932 239.138 96.581C239.731 96.9622 240.181 97.392 240.488 97.8703C240.797 98.3396 240.975 98.8655 241.022 99.4481C241.071 100.022 241.001 100.66 240.813 101.363ZM236.683 91.7348C236.746 91.5004 236.769 91.2699 236.752 91.0433C236.738 90.8076 236.658 90.5832 236.512 90.3703C236.366 90.1573 236.145 89.9577 235.847 89.7716C235.549 89.5855 235.147 89.4248 234.642 89.2895L227.246 87.3077L226.311 90.7963L233.708 92.7782C234.212 92.9134 234.639 92.9795 234.988 92.9763C235.337 92.9731 235.626 92.9202 235.856 92.8177C236.087 92.7152 236.266 92.5699 236.394 92.3819C236.524 92.1849 236.62 91.9692 236.683 91.7348ZM235.871 99.4158C235.985 98.9921 236.003 98.6347 235.926 98.3437C235.852 98.0436 235.68 97.7849 235.41 97.5676C235.142 97.3412 234.771 97.1403 234.296 96.9648C233.821 96.7893 233.246 96.6109 232.57 96.4298L225.322 94.4878L224.268 98.4226L231.515 100.365C232.192 100.546 232.779 100.679 233.278 100.764C233.777 100.85 234.199 100.861 234.544 100.799C234.889 100.737 235.168 100.599 235.379 100.385C235.594 100.163 235.758 99.8395 235.871 99.4158ZM260.22 112.056L260.709 110.23C259.975 110.41 259.202 110.537 258.39 110.609C257.587 110.684 256.764 110.71 255.92 110.686C255.076 110.663 254.218 110.583 253.347 110.446C252.482 110.321 251.621 110.143 250.765 109.914C249.764 109.646 248.82 109.291 247.934 108.851C247.056 108.413 246.313 107.885 245.706 107.268C245.098 106.651 244.665 105.941 244.407 105.138C244.158 104.337 244.166 103.44 244.432 102.449C244.768 101.196 245.389 100.246 246.296 99.6006C247.206 98.9458 248.435 98.5409 249.984 98.3858C251.533 98.2308 253.419 98.2964 255.641 98.5828C257.873 98.8717 260.48 99.3287 263.462 99.9538L263.568 99.5617C263.65 99.2552 263.649 98.9315 263.567 98.5905C263.487 98.2406 263.261 97.8949 262.888 97.5536C262.527 97.2057 261.992 96.8594 261.283 96.5147C260.582 96.1724 259.655 95.8467 258.501 95.5375C257.59 95.2935 256.676 95.1016 255.757 94.9616C254.849 94.815 253.959 94.7118 253.086 94.6518C252.222 94.5943 251.392 94.5746 250.595 94.5929C249.798 94.6112 249.066 94.6566 248.399 94.7291L249.594 90.267C250.269 90.2738 251.019 90.3056 251.844 90.3625C252.669 90.4194 253.52 90.5073 254.397 90.6262C255.275 90.736 256.156 90.8754 257.038 91.0442C257.923 91.2039 258.762 91.3901 259.555 91.6026C261.115 92.0205 262.518 92.5365 263.764 93.1506C265.012 93.7556 266.037 94.4554 266.839 95.2499C267.649 96.0468 268.21 96.9312 268.519 97.903C268.838 98.8773 268.844 99.9368 268.537 101.082L265.236 113.4L260.22 112.056ZM262.491 103.578C260.543 103.133 258.875 102.797 257.486 102.57C256.107 102.345 254.947 102.203 254.006 102.145C253.065 102.086 252.31 102.091 251.741 102.161C251.18 102.233 250.745 102.343 250.435 102.492C250.124 102.641 249.909 102.815 249.787 103.014C249.675 103.216 249.595 103.407 249.547 103.587C249.489 103.804 249.491 104.031 249.552 104.27C249.616 104.5 249.772 104.73 250.02 104.96C250.276 105.193 250.636 105.42 251.098 105.641C251.561 105.861 252.162 106.071 252.901 106.269C253.721 106.489 254.54 106.64 255.358 106.724C256.177 106.808 256.966 106.836 257.727 106.808C258.491 106.771 259.219 106.686 259.912 106.553C260.616 106.413 261.257 106.237 261.836 106.025L262.491 103.578ZM296.663 111.85C296.344 113.04 295.929 114.064 295.419 114.922C294.911 115.772 294.327 116.475 293.665 117.032C293.013 117.592 292.289 118.021 291.494 118.32C290.708 118.621 289.871 118.808 288.982 118.879C288.094 118.95 287.162 118.927 286.189 118.811C285.217 118.686 284.222 118.487 283.204 118.214L271.413 115.055L276.391 96.476L288.155 99.6282C289.173 99.9011 290.133 100.231 291.035 100.617C291.938 100.995 292.757 101.436 293.491 101.942C294.234 102.45 294.875 103.033 295.414 103.689C295.956 104.337 296.368 105.07 296.651 105.89C296.945 106.703 297.1 107.605 297.115 108.594C297.13 109.584 296.979 110.669 296.663 111.85ZM291.605 110.495C291.845 109.602 291.935 108.796 291.877 108.075C291.828 107.356 291.603 106.716 291.203 106.155C290.814 105.587 290.237 105.09 289.473 104.662C288.71 104.226 287.739 103.85 286.558 103.534L280.324 101.863L277.513 112.356L283.746 114.026C284.927 114.343 285.955 114.507 286.831 114.52C287.71 114.523 288.459 114.376 289.08 114.079C289.712 113.775 290.229 113.324 290.631 112.726C291.041 112.131 291.366 111.387 291.605 110.495Z" fill="#B3EF16"/>
<path d="M1039.82 305.369L1035.92 319.905L1030.91 318.561L1034.8 304.025L1026.92 301.913L1028 297.87L1048.8 303.442L1047.71 307.485L1039.82 305.369ZM1074.12 320.197C1073.69 321.793 1073.02 323.125 1072.1 324.194C1071.19 325.254 1070.08 326.048 1068.77 326.576C1067.46 327.104 1065.97 327.371 1064.29 327.377C1062.63 327.376 1060.83 327.116 1058.89 326.597C1056.96 326.077 1055.26 325.4 1053.8 324.565C1052.35 323.724 1051.19 322.745 1050.31 321.63C1049.43 320.515 1048.86 319.27 1048.59 317.893C1048.32 316.508 1048.4 315.017 1048.83 313.422C1049.26 311.826 1049.93 310.5 1050.85 309.442C1051.78 308.376 1052.9 307.579 1054.22 307.054C1055.54 306.528 1057.03 306.267 1058.7 306.27C1060.38 306.267 1062.19 306.525 1064.13 307.044C1066.07 307.563 1067.76 308.243 1069.2 309.082C1070.64 309.914 1071.8 310.887 1072.67 311.999C1073.55 313.112 1074.11 314.36 1074.37 315.743C1074.63 317.117 1074.54 318.602 1074.12 320.197ZM1069.04 318.838C1069.23 318.144 1069.3 317.425 1069.26 316.679C1069.23 315.927 1069.01 315.2 1068.58 314.498C1068.17 313.798 1067.53 313.147 1066.64 312.543C1065.76 311.94 1064.57 311.436 1063.06 311.033C1062.05 310.762 1061.14 310.606 1060.33 310.563C1059.53 310.511 1058.81 310.549 1058.17 310.679C1057.54 310.809 1056.98 311.012 1056.5 311.289C1056.02 311.558 1055.62 311.878 1055.27 312.25C1054.93 312.613 1054.65 313.016 1054.43 313.458C1054.22 313.894 1054.05 314.337 1053.93 314.788C1053.8 315.247 1053.72 315.724 1053.69 316.217C1053.66 316.712 1053.7 317.206 1053.81 317.699C1053.93 318.183 1054.12 318.661 1054.4 319.132C1054.68 319.603 1055.06 320.053 1055.55 320.482C1056.03 320.903 1056.64 321.296 1057.36 321.664C1058.09 322.023 1058.95 322.337 1059.96 322.608C1061.47 323.011 1062.75 323.172 1063.82 323.09C1064.88 323.009 1065.77 322.768 1066.48 322.367C1067.19 321.97 1067.75 321.457 1068.15 320.83C1068.56 320.196 1068.86 319.533 1069.04 318.838ZM1094.29 335.545C1094.47 334.511 1094.46 333.562 1094.27 332.699C1094.08 331.826 1093.75 331.034 1093.3 330.322C1092.85 329.613 1092.3 328.977 1091.63 328.413C1090.98 327.852 1090.29 327.362 1089.55 326.942C1088.82 326.513 1088.06 326.152 1087.29 325.858C1086.53 325.558 1085.81 325.317 1085.14 325.136L1083.65 324.737L1081.66 332.161L1076.64 330.816L1081.62 312.237L1086.64 313.582L1084.72 320.748L1085.75 321.024C1086.44 321.21 1087.18 321.35 1087.97 321.445C1088.75 321.539 1089.55 321.569 1090.35 321.532C1091.16 321.498 1091.96 321.388 1092.74 321.202C1093.53 321.016 1094.26 320.73 1094.94 320.343C1095.63 319.956 1096.24 319.464 1096.79 318.866C1097.34 318.26 1097.78 317.522 1098.1 316.654L1103.22 318.024C1102.86 318.982 1102.43 319.817 1101.91 320.528C1101.4 321.242 1100.83 321.854 1100.21 322.364C1099.6 322.867 1098.96 323.28 1098.29 323.601C1097.61 323.923 1096.94 324.177 1096.27 324.365C1095.6 324.544 1094.95 324.669 1094.31 324.74C1093.69 324.804 1093.11 324.828 1092.59 324.813C1093.19 325.081 1093.8 325.414 1094.42 325.811C1095.05 326.202 1095.65 326.663 1096.22 327.193C1096.8 327.715 1097.32 328.308 1097.79 328.975C1098.27 329.644 1098.66 330.382 1098.96 331.189C1099.27 331.995 1099.47 332.874 1099.56 333.827C1099.65 334.779 1099.6 335.808 1099.4 336.914L1094.29 335.545ZM1125.12 342.82C1123.46 342.917 1121.84 342.869 1120.26 342.677C1118.68 342.497 1117.1 342.194 1115.52 341.769C1113.49 341.225 1111.74 340.525 1110.27 339.667C1108.81 338.802 1107.65 337.811 1106.79 336.691C1105.93 335.572 1105.38 334.337 1105.13 332.986C1104.88 331.635 1104.96 330.202 1105.37 328.688C1105.75 327.281 1106.38 326.055 1107.27 325.008C1108.17 323.955 1109.26 323.126 1110.54 322.523C1111.84 321.913 1113.29 321.56 1114.91 321.463C1116.54 321.356 1118.26 321.548 1120.09 322.039C1121.78 322.49 1123.26 323.133 1124.53 323.967C1125.82 324.795 1126.84 325.789 1127.6 326.95C1128.37 328.112 1128.86 329.421 1129.06 330.876C1129.27 332.332 1129.14 333.913 1128.69 335.617L1128.35 336.861L1110.04 331.955C1110.05 332.584 1110.17 333.192 1110.41 333.778C1110.66 334.366 1111.06 334.917 1111.61 335.431C1112.15 335.945 1112.87 336.421 1113.74 336.859C1114.63 337.3 1115.72 337.694 1117.02 338.042C1117.94 338.288 1118.86 338.476 1119.77 338.604C1120.68 338.724 1121.55 338.796 1122.36 338.821C1123.18 338.837 1123.93 338.814 1124.6 338.753C1125.28 338.695 1125.84 338.603 1126.28 338.479L1125.12 342.82ZM1124.35 331.846C1124.43 331.374 1124.41 330.863 1124.31 330.314C1124.22 329.757 1123.98 329.215 1123.59 328.685C1123.2 328.156 1122.64 327.657 1121.9 327.19C1121.17 326.713 1120.2 326.315 1119 325.993C1117.88 325.691 1116.87 325.57 1115.97 325.63C1115.08 325.69 1114.29 325.852 1113.62 326.117C1112.96 326.384 1112.41 326.716 1111.98 327.111C1111.55 327.507 1111.23 327.895 1111.03 328.277L1124.35 331.846ZM1149.1 350.231L1151.89 339.819C1152.08 339.125 1152.19 338.483 1152.22 337.893C1152.25 337.294 1152.16 336.752 1151.94 336.268C1151.74 335.778 1151.37 335.348 1150.85 334.977C1150.35 334.599 1149.64 334.29 1148.74 334.048C1148.06 333.865 1147.31 333.766 1146.5 333.752C1145.7 333.732 1144.9 333.776 1144.07 333.885C1143.25 333.993 1142.45 334.16 1141.67 334.384C1140.89 334.611 1140.18 334.875 1139.54 335.177L1136.42 346.833L1131.4 345.489L1136.38 326.91L1141.4 328.254L1140.71 330.796C1141.44 330.604 1142.21 330.428 1143.01 330.267C1143.82 330.098 1144.67 329.976 1145.55 329.903C1146.43 329.829 1147.34 329.823 1148.29 329.884C1149.24 329.946 1150.22 330.11 1151.22 330.378C1152.47 330.714 1153.55 331.167 1154.45 331.737C1155.36 332.3 1156.08 332.953 1156.62 333.695C1157.16 334.429 1157.5 335.24 1157.65 336.13C1157.81 337.013 1157.76 337.942 1157.49 338.915L1154.1 351.572L1149.1 350.231Z" fill="#B3EF16"/>
<path d="M1522.39 441.014L1528.66 452.91L1522.64 451.297L1518.5 443.479L1511.04 448.189L1505.03 446.58L1516.39 439.406L1510.44 428.117L1516.46 429.729L1520.24 436.975L1527.17 432.599L1533.19 434.211L1522.39 441.014ZM1546.69 442.163L1542.8 456.699L1537.78 455.354L1541.67 440.818L1533.79 438.706L1534.87 434.663L1555.67 440.236L1554.59 444.279L1546.69 442.163ZM1553.38 459.535L1554.42 455.654L1569.48 448.297L1557.63 445.124L1558.72 441.054L1577.78 446.159L1576.86 449.566L1561.12 457.247L1574.16 460.74L1573.07 464.81L1553.38 459.535Z" fill="#B3EF16"/>
<path d="M587.485 184.167L583.59 198.702L578.573 197.358L582.468 182.822L574.585 180.71L575.668 176.667L596.465 182.239L595.382 186.282L587.485 184.167ZM615.948 206.387C614.289 206.484 612.669 206.436 611.087 206.244C609.512 206.064 607.932 205.761 606.345 205.336C604.317 204.792 602.568 204.092 601.097 203.234C599.638 202.37 598.478 201.378 597.619 200.259C596.759 199.139 596.206 197.904 595.96 196.553C595.713 195.202 595.792 193.769 596.198 192.255C596.575 190.849 597.208 189.622 598.097 188.575C598.998 187.522 600.089 186.694 601.372 186.09C602.666 185.481 604.123 185.127 605.743 185.03C607.365 184.924 609.092 185.116 610.922 185.606C612.607 186.058 614.087 186.7 615.361 187.535C616.647 188.362 617.67 189.356 618.432 190.517C619.202 191.68 619.687 192.988 619.887 194.443C620.096 195.9 619.972 197.48 619.515 199.184L619.182 200.428L600.873 195.522C600.879 196.151 601.001 196.759 601.24 197.345C601.488 197.933 601.887 198.484 602.435 198.998C602.983 199.512 603.696 199.988 604.574 200.427C605.461 200.867 606.553 201.261 607.851 201.609C608.771 201.855 609.687 202.043 610.599 202.171C611.514 202.291 612.378 202.363 613.193 202.388C614.01 202.404 614.755 202.382 615.428 202.321C616.111 202.262 616.672 202.171 617.111 202.047L615.948 206.387ZM615.178 195.413C615.256 194.941 615.243 194.43 615.139 193.881C615.047 193.325 614.806 192.782 614.416 192.252C614.027 191.723 613.465 191.224 612.73 190.757C611.998 190.281 611.032 189.882 609.833 189.561C608.706 189.259 607.695 189.137 606.8 189.197C605.905 189.257 605.122 189.419 604.452 189.684C603.791 189.951 603.244 190.283 602.809 190.678C602.375 191.074 602.058 191.463 601.859 191.844L615.178 195.413ZM621.147 208.766L622.187 204.885L637.245 197.529L625.4 194.355L626.491 190.285L645.543 195.39L644.63 198.797L628.891 206.478L641.926 209.971L640.835 214.041L621.147 208.766ZM672.376 212.551C671.948 214.146 671.277 215.478 670.363 216.547C669.451 217.607 668.339 218.401 667.029 218.929C665.718 219.458 664.227 219.724 662.553 219.73C660.892 219.729 659.092 219.469 657.154 218.95C655.216 218.431 653.518 217.754 652.061 216.919C650.615 216.077 649.452 215.099 648.572 213.984C647.692 212.869 647.117 211.623 646.848 210.247C646.582 208.861 646.662 207.371 647.09 205.775C647.518 204.18 648.192 202.853 649.113 201.796C650.036 200.729 651.158 199.933 652.477 199.407C653.797 198.882 655.292 198.62 656.963 198.624C658.645 198.62 660.455 198.878 662.393 199.398C664.331 199.917 666.019 200.596 667.456 201.435C668.904 202.268 670.064 203.24 670.935 204.353C671.806 205.466 672.37 206.713 672.627 208.096C672.887 209.47 672.803 210.955 672.376 212.551ZM667.305 211.192C667.491 210.498 667.563 209.778 667.521 209.033C667.491 208.28 667.266 207.553 666.845 206.851C666.433 206.152 665.787 205.5 664.905 204.897C664.023 204.293 662.83 203.79 661.324 203.386C660.315 203.116 659.405 202.959 658.595 202.916C657.788 202.864 657.067 202.903 656.434 203.033C655.8 203.162 655.243 203.366 654.763 203.643C654.285 203.911 653.876 204.231 653.534 204.604C653.195 204.967 652.914 205.37 652.689 205.812C652.476 206.247 652.308 206.691 652.188 207.141C652.065 207.601 651.985 208.077 651.95 208.57C651.923 209.066 651.965 209.56 652.074 210.053C652.186 210.537 652.382 211.014 652.661 211.485C652.941 211.957 653.323 212.407 653.807 212.836C654.293 213.256 654.898 213.65 655.621 214.018C656.346 214.376 657.213 214.691 658.223 214.961C659.728 215.365 661.014 215.525 662.079 215.444C663.144 215.362 664.03 215.121 664.736 214.721C665.452 214.323 666.009 213.811 666.409 213.184C666.82 212.55 667.119 211.886 667.305 211.192ZM695.598 214.411C695.293 214.145 694.88 213.827 694.361 213.456C693.842 213.085 693.243 212.707 692.564 212.322C691.887 211.928 691.137 211.554 690.314 211.198C689.494 210.833 688.633 210.53 687.732 210.289C687.011 210.095 686.387 209.952 685.861 209.86C685.345 209.77 684.901 209.713 684.53 209.691C684.168 209.672 683.87 209.684 683.636 209.727C683.414 209.764 683.235 209.818 683.1 209.888C682.965 209.958 682.867 210.038 682.804 210.128C682.751 210.219 682.713 210.306 682.691 210.387C682.619 210.658 682.69 210.933 682.905 211.212C683.122 211.483 683.443 211.763 683.869 212.05C684.296 212.329 684.802 212.624 685.385 212.935C685.971 213.237 686.59 213.558 687.243 213.897C687.908 214.229 688.586 214.585 689.276 214.963C689.979 215.335 690.646 215.731 691.277 216.151C691.917 216.574 692.506 217.027 693.044 217.509C693.584 217.982 694.032 218.489 694.39 219.029C694.748 219.569 694.989 220.146 695.115 220.759C695.24 221.373 695.21 222.026 695.024 222.721C694.785 223.613 694.422 224.337 693.935 224.892C693.448 225.448 692.879 225.875 692.229 226.175C691.588 226.476 690.884 226.669 690.117 226.754C689.353 226.829 688.569 226.836 687.764 226.775C686.968 226.716 686.172 226.605 685.375 226.44C684.588 226.277 683.843 226.101 683.14 225.913C681.301 225.42 679.638 224.81 678.152 224.084C676.672 223.368 675.393 222.625 674.315 221.853L675.503 217.418C676.554 218.434 677.817 219.347 679.291 220.157C680.773 220.97 682.416 221.618 684.219 222.101C685.283 222.386 686.163 222.564 686.859 222.634C687.566 222.698 688.132 222.695 688.557 222.625C688.984 222.547 689.293 222.422 689.483 222.25C689.674 222.079 689.795 221.899 689.846 221.71C689.925 221.412 689.859 221.119 689.646 220.83C689.436 220.533 689.119 220.24 688.693 219.952C688.271 219.655 687.766 219.356 687.18 219.054C686.597 218.743 685.972 218.426 685.305 218.102C684.65 217.772 683.974 217.426 683.278 217.066C682.583 216.706 681.912 216.323 681.267 215.919C680.633 215.507 680.044 215.074 679.499 214.619C678.957 214.155 678.505 213.661 678.142 213.139C677.782 212.608 677.537 212.045 677.407 211.449C677.279 210.845 677.308 210.196 677.494 209.502C677.713 208.681 678.047 208.012 678.495 207.495C678.943 206.977 679.466 206.576 680.064 206.292C680.673 206.001 681.333 205.811 682.043 205.721C682.762 205.633 683.497 205.613 684.248 205.659C684.999 205.706 685.746 205.8 686.491 205.942C687.236 206.083 687.937 206.242 688.595 206.418C689.316 206.612 690.046 206.846 690.784 207.121C691.531 207.398 692.256 207.704 692.958 208.037C693.664 208.361 694.336 208.701 694.975 209.056C695.624 209.413 696.215 209.765 696.751 210.111L695.598 214.411Z" fill="#B3EF16"/>
<line x1="344.571" y1="124.665" x2="505.881" y2="167.887" stroke="#2F2F2A" stroke-width="2.86695"/>
<line x1="764.806" y1="237.266" x2="926.116" y2="280.489" stroke="#2F2F2A" stroke-width="2.86695"/>
<line x1="1218.37" y1="356.615" x2="1379.68" y2="399.838" stroke="#2F2F2A" stroke-width="2.86695"/>
<line x1="1659.37" y1="479.615" x2="1820.68" y2="522.838" stroke="#2F2F2A" stroke-width="2.86695"/>
</svg>
