<svg width="1820" height="570" viewBox="0 0 1820 570" fill="none" xmlns="http://www.w3.org/2000/svg">
<g opacity="0.8">
<rect x="-39.8024" y="514.269" width="1971.17" height="63.073" transform="rotate(-15 -39.8024 514.269)" fill="#B9FD02"/>
<path d="M95.8836 504.976L99.7785 519.512L94.7619 520.856L90.867 506.32L82.9838 508.432L81.9005 504.389L102.697 498.817L103.78 502.86L95.8836 504.976ZM133.001 500.668C133.428 502.264 133.514 503.753 133.256 505.136C132.996 506.51 132.431 507.753 131.56 508.866C130.689 509.978 129.53 510.955 128.084 511.797C126.645 512.627 124.956 513.302 123.018 513.821C121.08 514.34 119.271 514.603 117.592 514.608C115.918 514.603 114.422 514.337 113.103 513.811C111.783 513.286 110.663 512.494 109.742 511.436C108.818 510.37 108.143 509.039 107.715 507.443C107.288 505.848 107.208 504.362 107.477 502.985C107.744 501.6 108.317 500.35 109.197 499.235C110.077 498.12 111.241 497.146 112.689 496.313C114.144 495.469 115.841 494.788 117.779 494.268C119.717 493.749 121.518 493.494 123.182 493.502C124.853 493.499 126.344 493.761 127.654 494.289C128.965 494.817 130.077 495.616 130.992 496.685C131.904 497.745 132.573 499.072 133.001 500.668ZM127.93 502.027C127.744 501.333 127.447 500.673 127.038 500.048C126.636 499.412 126.077 498.895 125.361 498.498C124.655 498.097 123.769 497.857 122.704 497.775C121.639 497.693 120.353 497.854 118.848 498.257C117.838 498.528 116.972 498.847 116.249 499.215C115.524 499.573 114.92 499.967 114.436 500.396C113.952 500.825 113.571 501.28 113.294 501.76C113.014 502.231 112.82 502.713 112.71 503.206C112.598 503.69 112.556 504.18 112.582 504.675C112.615 505.159 112.692 505.627 112.813 506.077C112.936 506.537 113.106 506.989 113.321 507.434C113.546 507.876 113.829 508.283 114.17 508.656C114.509 509.019 114.918 509.335 115.395 509.603C115.873 509.871 116.429 510.07 117.062 510.199C117.694 510.32 118.414 510.359 119.224 510.316C120.031 510.264 120.94 510.103 121.949 509.832C123.455 509.429 124.648 508.925 125.53 508.322C126.412 507.718 127.059 507.067 127.47 506.367C127.891 505.665 128.117 504.943 128.15 504.2C128.19 503.445 128.116 502.721 127.93 502.027ZM158.146 503.872C157.785 502.887 157.305 502.069 156.706 501.418C156.104 500.758 155.427 500.234 154.676 499.846C153.933 499.455 153.135 499.181 152.281 499.023C151.437 498.863 150.59 498.786 149.741 498.791C148.89 498.787 148.057 498.851 147.242 498.983C146.433 499.103 145.691 499.253 145.015 499.434L143.527 499.833L145.516 507.256L140.5 508.601L135.522 490.022L140.538 488.677L142.459 495.844L143.486 495.569C144.18 495.383 144.891 495.134 145.62 494.823C146.348 494.512 147.05 494.14 147.727 493.708C148.412 493.273 149.048 492.779 149.634 492.226C150.22 491.673 150.712 491.058 151.111 490.381C151.509 489.704 151.795 488.97 151.97 488.179C152.142 487.38 152.154 486.522 152.005 485.605L157.116 484.235C157.289 485.242 157.329 486.183 157.235 487.059C157.15 487.932 156.967 488.744 156.685 489.496C156.41 490.236 156.06 490.914 155.636 491.53C155.212 492.147 154.757 492.703 154.272 493.2C153.784 493.688 153.282 494.122 152.766 494.502C152.256 494.871 151.769 495.18 151.304 495.43C151.962 495.36 152.658 495.343 153.392 495.378C154.132 495.402 154.883 495.5 155.645 495.673C156.403 495.837 157.152 496.09 157.892 496.433C158.64 496.774 159.348 497.217 160.016 497.763C160.684 498.308 161.296 498.97 161.852 499.749C162.409 500.527 162.877 501.445 163.257 502.503L158.146 503.872ZM188.483 494.758C187.094 495.671 185.668 496.44 184.202 497.064C182.748 497.696 181.228 498.224 179.641 498.649C177.613 499.192 175.748 499.46 174.045 499.453C172.349 499.434 170.849 499.154 169.545 498.615C168.241 498.075 167.145 497.282 166.256 496.236C165.366 495.189 164.719 493.908 164.313 492.394C163.936 490.988 163.871 489.609 164.118 488.258C164.371 486.895 164.902 485.632 165.711 484.469C166.527 483.293 167.612 482.259 168.966 481.364C170.319 480.461 171.91 479.764 173.74 479.274C175.425 478.822 177.028 478.639 178.549 478.724C180.076 478.798 181.459 479.147 182.699 479.772C183.948 480.394 185.022 481.285 185.922 482.444C186.831 483.602 187.514 485.032 187.971 486.736L188.304 487.98L169.996 492.886C170.315 493.428 170.724 493.893 171.225 494.281C171.734 494.666 172.354 494.945 173.086 495.116C173.818 495.287 174.673 495.342 175.652 495.283C176.641 495.221 177.784 495.016 179.082 494.668C180.001 494.422 180.888 494.126 181.743 493.781C182.595 493.428 183.38 493.058 184.098 492.672C184.813 492.278 185.447 491.885 186 491.496C186.561 491.104 187.001 490.744 187.32 490.418L188.483 494.758ZM182.329 485.639C182.161 485.191 181.894 484.755 181.529 484.331C181.171 483.896 180.691 483.546 180.089 483.283C179.487 483.019 178.751 482.868 177.881 482.831C177.009 482.784 175.973 482.922 174.774 483.243C173.647 483.545 172.711 483.946 171.966 484.445C171.22 484.944 170.624 485.476 170.176 486.04C169.737 486.602 169.428 487.163 169.25 487.723C169.071 488.283 168.992 488.778 169.01 489.208L182.329 485.639ZM212.957 489.186L210.167 478.774C209.981 478.08 209.755 477.469 209.488 476.942C209.218 476.405 208.868 475.982 208.437 475.672C208.013 475.351 207.484 475.16 206.849 475.098C206.221 475.025 205.456 475.109 204.554 475.35C203.869 475.534 203.173 475.822 202.467 476.214C201.767 476.595 201.088 477.038 200.431 477.542C199.774 478.047 199.162 478.592 198.595 479.179C198.036 479.764 197.555 480.347 197.15 480.928L200.273 492.584L195.257 493.928L190.279 475.349L195.295 474.005L195.976 476.547C196.511 476.018 197.087 475.482 197.705 474.939C198.32 474.388 198.991 473.861 199.716 473.357C200.441 472.854 201.23 472.391 202.083 471.969C202.936 471.547 203.863 471.202 204.864 470.934C206.117 470.598 207.275 470.452 208.34 470.495C209.411 470.527 210.365 470.731 211.199 471.106C212.032 471.472 212.735 472.004 213.308 472.701C213.888 473.386 214.308 474.215 214.569 475.189L217.96 487.845L212.957 489.186Z" fill="#292929"/>
<path d="M970.281 280.769C970.474 281.49 970.547 282.142 970.5 282.724C970.453 283.307 970.311 283.838 970.072 284.317C969.84 284.785 969.518 285.205 969.105 285.576C968.699 285.936 968.227 286.266 967.689 286.564C967.157 286.852 966.574 287.11 965.939 287.338C965.305 287.566 964.64 287.773 963.946 287.959L950.465 291.571L945.487 272.992L958.725 269.445C959.257 269.302 959.795 269.182 960.338 269.085C960.891 268.985 961.428 268.933 961.949 268.929C962.467 268.915 962.962 268.961 963.435 269.067C963.917 269.17 964.358 269.356 964.759 269.625C965.168 269.892 965.525 270.251 965.829 270.701C966.142 271.148 966.39 271.71 966.571 272.386C966.894 273.594 966.854 274.634 966.45 275.505C966.043 276.368 965.232 277.088 964.014 277.665C964.933 277.487 965.741 277.42 966.439 277.465C967.143 277.498 967.748 277.645 968.253 277.906C968.755 278.158 969.172 278.525 969.504 279.006C969.833 279.478 970.092 280.065 970.281 280.769ZM961.89 274.495C961.827 274.261 961.732 274.05 961.604 273.862C961.474 273.665 961.292 273.51 961.06 273.399C960.827 273.287 960.535 273.225 960.184 273.213C959.833 273.201 959.405 273.263 958.9 273.398L951.503 275.38L952.438 278.868L959.835 276.886C960.34 276.751 960.742 276.595 961.042 276.418C961.343 276.241 961.567 276.05 961.715 275.846C961.864 275.642 961.946 275.427 961.963 275.2C961.977 274.965 961.952 274.73 961.89 274.495ZM965.027 281.553C964.914 281.129 964.751 280.811 964.539 280.597C964.325 280.374 964.046 280.236 963.704 280.183C963.358 280.121 962.936 280.133 962.438 280.218C961.939 280.303 961.351 280.437 960.675 280.618L953.427 282.56L954.482 286.495L961.729 284.553C962.406 284.371 962.981 284.193 963.456 284.018C963.93 283.842 964.302 283.641 964.569 283.415C964.837 283.188 965.01 282.93 965.086 282.639C965.16 282.339 965.141 281.977 965.027 281.553ZM992.434 280.325L991.945 278.5C991.399 279.023 990.792 279.519 990.126 279.987C989.468 280.453 988.768 280.887 988.025 281.289C987.283 281.691 986.5 282.051 985.677 282.368C984.865 282.692 984.031 282.968 983.174 283.198C982.174 283.466 981.179 283.631 980.191 283.693C979.212 283.752 978.305 283.667 977.47 283.436C976.636 283.206 975.906 282.807 975.28 282.24C974.664 281.671 974.223 280.891 973.957 279.899C973.622 278.646 973.685 277.513 974.148 276.5C974.609 275.479 975.471 274.513 976.734 273.605C977.998 272.696 979.664 271.81 981.732 270.947C983.809 270.081 986.296 269.173 989.191 268.223L989.086 267.831C989.004 267.525 988.842 267.244 988.6 266.99C988.355 266.727 987.987 266.541 987.494 266.432C987.007 266.311 986.37 266.279 985.584 266.335C984.806 266.389 983.84 266.57 982.686 266.879C981.775 267.123 980.887 267.415 980.021 267.753C979.162 268.08 978.34 268.435 977.554 268.82C976.777 269.202 976.048 269.6 975.367 270.015C974.685 270.429 974.074 270.834 973.533 271.23L972.337 266.768C972.925 266.437 973.59 266.09 974.334 265.726C975.077 265.363 975.858 265.013 976.676 264.678C977.492 264.334 978.324 264.014 979.173 263.719C980.019 263.415 980.838 263.157 981.632 262.945C983.191 262.527 984.664 262.272 986.05 262.181C987.434 262.081 988.672 262.174 989.763 262.461C990.863 262.746 991.791 263.232 992.545 263.919C993.308 264.603 993.843 265.518 994.15 266.663L997.45 278.981L992.434 280.325ZM990.162 271.847C988.252 272.436 986.639 272.98 985.323 273.477C984.016 273.972 982.941 274.429 982.097 274.849C981.253 275.268 980.601 275.65 980.143 275.995C979.694 276.338 979.372 276.651 979.178 276.935C978.983 277.219 978.883 277.478 978.878 277.711C978.882 277.942 978.908 278.148 978.957 278.328C979.015 278.544 979.13 278.74 979.303 278.916C979.473 279.083 979.723 279.205 980.052 279.281C980.391 279.354 980.816 279.371 981.327 279.331C981.838 279.29 982.463 279.171 983.202 278.973C984.022 278.753 984.808 278.475 985.558 278.139C986.308 277.802 987.006 277.432 987.651 277.027C988.294 276.613 988.882 276.176 989.415 275.714C989.955 275.241 990.423 274.768 990.818 274.295L990.162 271.847ZM1021.27 272.598C1020.91 271.613 1020.43 270.794 1019.83 270.143C1019.23 269.483 1018.55 268.959 1017.8 268.571C1017.06 268.181 1016.26 267.907 1015.41 267.749C1014.56 267.589 1013.72 267.512 1012.87 267.517C1012.02 267.513 1011.18 267.577 1010.37 267.708C1009.56 267.828 1008.82 267.979 1008.14 268.16L1006.65 268.559L1008.64 275.982L1003.63 277.326L998.648 258.747L1003.66 257.403L1005.59 264.57L1006.61 264.294C1007.31 264.108 1008.02 263.86 1008.75 263.549C1009.47 263.238 1010.18 262.866 1010.85 262.433C1011.54 261.999 1012.17 261.505 1012.76 260.951C1013.35 260.398 1013.84 259.783 1014.24 259.106C1014.64 258.43 1014.92 257.696 1015.1 256.905C1015.27 256.105 1015.28 255.247 1015.13 254.331L1020.24 252.961C1020.42 253.968 1020.46 254.909 1020.36 255.784C1020.28 256.657 1020.09 257.47 1019.81 258.221C1019.54 258.962 1019.19 259.64 1018.76 260.256C1018.34 260.872 1017.88 261.429 1017.4 261.926C1016.91 262.414 1016.41 262.848 1015.89 263.228C1015.38 263.597 1014.9 263.906 1014.43 264.156C1015.09 264.086 1015.78 264.069 1016.52 264.104C1017.26 264.128 1018.01 264.226 1018.77 264.399C1019.53 264.563 1020.28 264.816 1021.02 265.159C1021.77 265.5 1022.47 265.943 1023.14 266.488C1023.81 267.034 1024.42 267.696 1024.98 268.474C1025.54 269.253 1026 270.171 1026.38 271.228L1021.27 272.598ZM1031.14 269.954L1026.16 251.375L1031.18 250.031L1036.16 268.61L1031.14 269.954ZM1060.13 262.187L1057.34 251.775C1057.15 251.081 1056.93 250.47 1056.66 249.943C1056.39 249.406 1056.04 248.983 1055.61 248.673C1055.18 248.352 1054.65 248.161 1054.02 248.099C1053.39 248.026 1052.63 248.11 1051.73 248.351C1051.04 248.535 1050.34 248.823 1049.64 249.215C1048.94 249.596 1048.26 250.039 1047.6 250.543C1046.95 251.048 1046.33 251.593 1045.77 252.18C1045.21 252.765 1044.73 253.348 1044.32 253.929L1047.44 265.585L1042.43 266.929L1037.45 248.351L1042.47 247.006L1043.15 249.548C1043.68 249.019 1044.26 248.483 1044.88 247.94C1045.49 247.389 1046.16 246.862 1046.89 246.358C1047.61 245.855 1048.4 245.392 1049.25 244.97C1050.11 244.548 1051.03 244.203 1052.03 243.935C1053.29 243.6 1054.45 243.453 1055.51 243.496C1056.58 243.528 1057.54 243.732 1058.37 244.107C1059.2 244.473 1059.91 245.005 1060.48 245.702C1061.06 246.387 1061.48 247.216 1061.74 248.19L1065.13 260.846L1060.13 262.187ZM1078.18 236.929C1080 236.441 1081.74 236.146 1083.38 236.044C1085.03 235.93 1086.57 235.941 1088.01 236.078L1089.23 240.621C1088.64 240.47 1087.98 240.347 1087.26 240.25C1086.55 240.151 1085.79 240.099 1084.97 240.095C1084.16 240.09 1083.3 240.141 1082.4 240.247C1081.51 240.352 1080.58 240.533 1079.62 240.789C1078.43 241.108 1077.42 241.472 1076.58 241.88C1075.74 242.288 1075.05 242.72 1074.49 243.178C1073.94 243.635 1073.51 244.112 1073.21 244.609C1072.91 245.096 1072.7 245.587 1072.58 246.083C1072.46 246.578 1072.42 247.064 1072.45 247.538C1072.48 248.013 1072.55 248.463 1072.66 248.886C1072.76 249.256 1072.9 249.647 1073.09 250.061C1073.29 250.472 1073.55 250.866 1073.87 251.243C1074.21 251.618 1074.61 251.953 1075.1 252.248C1075.58 252.543 1076.17 252.763 1076.86 252.908C1077.55 253.05 1078.35 253.101 1079.26 253.061C1080.16 253.012 1081.21 252.829 1082.39 252.512C1082.98 252.353 1083.5 252.196 1083.93 252.042C1084.36 251.887 1084.75 251.73 1085.09 251.57C1085.44 251.408 1085.77 251.24 1086.06 251.065C1086.36 250.888 1086.67 250.704 1086.98 250.513L1086.38 248.268L1080.76 249.776L1079.66 245.706L1090.31 242.854L1092.85 252.346C1092.24 252.751 1091.55 253.158 1090.77 253.57C1090 253.97 1089.19 254.352 1088.34 254.714C1087.5 255.084 1086.65 255.423 1085.79 255.732C1084.92 256.041 1084.1 256.3 1083.31 256.51C1082.1 256.837 1080.91 257.068 1079.75 257.205C1078.58 257.343 1077.47 257.375 1076.41 257.302C1075.35 257.218 1074.35 257.022 1073.41 256.714C1072.48 256.404 1071.63 255.964 1070.87 255.395C1070.12 254.824 1069.46 254.116 1068.9 253.272C1068.34 252.417 1067.9 251.408 1067.59 250.245C1067.28 249.091 1067.16 248.002 1067.24 246.978C1067.31 245.953 1067.54 245.003 1067.92 244.127C1068.32 243.249 1068.85 242.44 1069.52 241.7C1070.2 240.957 1070.98 240.288 1071.87 239.694C1072.76 239.088 1073.73 238.556 1074.8 238.096C1075.87 237.634 1077 237.245 1078.18 236.929ZM1129.64 238.068C1129.83 238.789 1129.91 239.441 1129.86 240.024C1129.81 240.607 1129.67 241.138 1129.43 241.617C1129.2 242.085 1128.88 242.505 1128.46 242.876C1128.06 243.236 1127.59 243.565 1127.05 243.864C1126.52 244.152 1125.93 244.409 1125.3 244.637C1124.66 244.865 1124 245.072 1123.31 245.258L1109.82 248.871L1104.85 230.292L1118.08 226.745C1118.62 226.602 1119.15 226.482 1119.7 226.385C1120.25 226.285 1120.79 226.233 1121.31 226.228C1121.83 226.215 1122.32 226.261 1122.79 226.366C1123.28 226.469 1123.72 226.655 1124.12 226.925C1124.53 227.192 1124.88 227.55 1125.19 228C1125.5 228.448 1125.75 229.01 1125.93 229.686C1126.25 230.894 1126.21 231.933 1125.81 232.805C1125.4 233.667 1124.59 234.387 1123.37 234.965C1124.29 234.786 1125.1 234.72 1125.8 234.764C1126.5 234.798 1127.11 234.945 1127.61 235.206C1128.11 235.458 1128.53 235.824 1128.86 236.305C1129.19 236.778 1129.45 237.365 1129.64 238.068ZM1121.25 231.795C1121.19 231.561 1121.09 231.349 1120.96 231.161C1120.83 230.964 1120.65 230.81 1120.42 230.699C1120.19 230.587 1119.89 230.525 1119.54 230.513C1119.19 230.501 1118.76 230.562 1118.26 230.698L1110.86 232.679L1111.8 236.168L1119.19 234.186C1119.7 234.051 1120.1 233.895 1120.4 233.718C1120.7 233.541 1120.93 233.35 1121.07 233.146C1121.22 232.942 1121.31 232.727 1121.32 232.5C1121.34 232.264 1121.31 232.029 1121.25 231.795ZM1124.39 238.853C1124.27 238.429 1124.11 238.11 1123.9 237.897C1123.68 237.674 1123.41 237.536 1123.06 237.483C1122.72 237.421 1122.3 237.432 1121.8 237.518C1121.3 237.603 1120.71 237.736 1120.03 237.918L1112.79 239.86L1113.84 243.794L1121.09 241.852C1121.76 241.671 1122.34 241.493 1122.82 241.317C1123.29 241.142 1123.66 240.941 1123.93 240.715C1124.2 240.488 1124.37 240.229 1124.45 239.938C1124.52 239.638 1124.5 239.276 1124.39 238.853ZM1151.79 237.625L1151.3 235.8C1150.76 236.323 1150.15 236.819 1149.49 237.287C1148.83 237.753 1148.13 238.187 1147.38 238.589C1146.64 238.991 1145.86 239.35 1145.04 239.668C1144.22 239.991 1143.39 240.268 1142.53 240.497C1141.53 240.766 1140.54 240.931 1139.55 240.992C1138.57 241.052 1137.66 240.966 1136.83 240.736C1136 240.506 1135.27 240.107 1134.64 239.54C1134.02 238.971 1133.58 238.191 1133.32 237.199C1132.98 235.946 1133.04 234.813 1133.51 233.8C1133.97 232.778 1134.83 231.813 1136.09 230.904C1137.36 229.996 1139.02 229.11 1141.09 228.246C1143.17 227.381 1145.66 226.473 1148.55 225.523L1148.45 225.131C1148.36 224.824 1148.2 224.544 1147.96 224.29C1147.71 224.027 1147.35 223.841 1146.85 223.732C1146.37 223.611 1145.73 223.578 1144.94 223.635C1144.17 223.689 1143.2 223.87 1142.05 224.179C1141.13 224.423 1140.25 224.714 1139.38 225.053C1138.52 225.379 1137.7 225.735 1136.91 226.12C1136.14 226.502 1135.41 226.9 1134.73 227.314C1134.04 227.729 1133.43 228.134 1132.89 228.53L1131.7 224.068C1132.28 223.737 1132.95 223.389 1133.69 223.026C1134.44 222.663 1135.22 222.313 1136.04 221.978C1136.85 221.634 1137.68 221.314 1138.53 221.019C1139.38 220.715 1140.2 220.457 1140.99 220.244C1142.55 219.826 1144.02 219.572 1145.41 219.481C1146.79 219.38 1148.03 219.474 1149.12 219.761C1150.22 220.046 1151.15 220.532 1151.9 221.219C1152.67 221.903 1153.2 222.818 1153.51 223.963L1156.81 236.281L1151.79 237.625ZM1149.52 229.147C1147.61 229.736 1146 230.279 1144.68 230.777C1143.38 231.272 1142.3 231.729 1141.46 232.149C1140.61 232.568 1139.96 232.95 1139.5 233.295C1139.05 233.638 1138.73 233.951 1138.54 234.235C1138.34 234.519 1138.24 234.778 1138.24 235.011C1138.24 235.242 1138.27 235.447 1138.32 235.628C1138.37 235.844 1138.49 236.04 1138.66 236.216C1138.83 236.383 1139.08 236.504 1139.41 236.58C1139.75 236.654 1140.18 236.671 1140.69 236.63C1141.2 236.59 1141.82 236.471 1142.56 236.273C1143.38 236.053 1144.17 235.775 1144.92 235.439C1145.67 235.102 1146.37 234.732 1147.01 234.327C1147.65 233.913 1148.24 233.475 1148.77 233.014C1149.31 232.54 1149.78 232.067 1150.18 231.594L1149.52 229.147ZM1183.25 219.225C1183.57 220.415 1183.72 221.509 1183.71 222.508C1183.69 223.497 1183.54 224.399 1183.25 225.212C1182.96 226.023 1182.55 226.756 1182.01 227.413C1181.48 228.067 1180.85 228.647 1180.11 229.153C1179.38 229.659 1178.56 230.105 1177.66 230.491C1176.76 230.868 1175.8 231.194 1174.78 231.467L1162.99 234.626L1158.01 216.047L1169.77 212.895C1170.79 212.622 1171.79 212.427 1172.76 212.312C1173.73 212.187 1174.66 212.16 1175.55 212.231C1176.45 212.299 1177.29 212.483 1178.09 212.782C1178.88 213.072 1179.61 213.501 1180.26 214.07C1180.92 214.627 1181.51 215.33 1182.01 216.18C1182.52 217.029 1182.93 218.044 1183.25 219.225ZM1178.19 220.58C1177.95 219.688 1177.63 218.944 1177.22 218.349C1176.82 217.751 1176.3 217.309 1175.68 217.023C1175.05 216.726 1174.31 216.583 1173.43 216.596C1172.55 216.599 1171.52 216.759 1170.34 217.076L1164.11 218.746L1166.92 229.239L1173.15 227.569C1174.33 227.252 1175.31 226.88 1176.07 226.453C1176.83 226.017 1177.41 225.515 1177.8 224.947C1178.19 224.368 1178.42 223.719 1178.46 223C1178.52 222.279 1178.43 221.473 1178.19 220.58Z" fill="#292929"/>
<path d="M1720.47 71.9685L1724.36 86.5045L1719.35 87.8486L1715.45 73.3127L1707.57 75.425L1706.48 71.382L1727.28 65.8096L1728.36 69.8526L1720.47 71.9685ZM1753.32 77.7599C1751.93 78.673 1750.5 79.4418 1749.04 80.0663C1747.58 80.6975 1746.06 81.2256 1744.48 81.6507C1742.45 82.1942 1740.58 82.4621 1738.88 82.4546C1737.19 82.4355 1735.69 82.1563 1734.38 81.6168C1733.08 81.0773 1731.98 80.2842 1731.09 79.2374C1730.2 78.1907 1729.56 76.9101 1729.15 75.3956C1728.77 73.9894 1728.71 72.6107 1728.95 71.2596C1729.21 69.8971 1729.74 68.634 1730.55 67.4704C1731.36 66.2953 1732.45 65.2606 1733.8 64.3663C1735.16 63.4629 1736.75 62.7661 1738.58 62.2757C1740.26 61.824 1741.87 61.6409 1743.39 61.7262C1744.91 61.8001 1746.3 62.1493 1747.54 62.7736C1748.78 63.3955 1749.86 64.2863 1750.76 65.4461C1751.67 66.6035 1752.35 68.034 1752.81 69.7377L1753.14 70.9818L1734.83 75.8875C1735.15 76.43 1735.56 76.8951 1736.06 77.2828C1736.57 77.6682 1737.19 77.9464 1737.92 78.1174C1738.65 78.2885 1739.51 78.3443 1740.49 78.2848C1741.48 78.2229 1742.62 78.018 1743.92 77.6702C1744.84 77.4238 1745.73 77.1282 1746.58 76.7833C1747.43 76.4294 1748.22 76.0597 1748.93 75.674C1749.65 75.2794 1750.28 74.8873 1750.84 74.4977C1751.4 74.1057 1751.84 73.7463 1752.16 73.4194L1753.32 77.7599ZM1747.17 68.6408C1747 68.1931 1746.73 67.7573 1746.37 67.3333C1746.01 66.8979 1745.53 66.5483 1744.93 66.2845C1744.32 66.0207 1743.59 65.8701 1742.72 65.8327C1741.85 65.7862 1740.81 65.9236 1739.61 66.2449C1738.48 66.5468 1737.55 66.9474 1736.8 67.4466C1736.06 67.9459 1735.46 68.4777 1735.01 69.0422C1734.57 69.6042 1734.27 70.1651 1734.09 70.725C1733.91 71.2849 1733.83 71.7798 1733.85 72.2096L1747.17 68.6408ZM1756.1 77.9993L1755.06 74.1185L1764.43 60.2187L1752.58 63.3925L1751.49 59.3225L1770.54 54.2174L1771.46 57.6249L1761.67 72.1466L1774.7 68.6539L1775.79 72.7239L1756.1 77.9993ZM1799.45 56.4418C1799.88 58.0374 1799.97 59.5266 1799.71 60.9096C1799.45 62.2836 1798.88 63.5269 1798.01 64.6395C1797.14 65.752 1795.98 66.7291 1794.54 67.5707C1793.1 68.4008 1791.41 69.0755 1789.47 69.5948C1787.53 70.1142 1785.72 70.3766 1784.04 70.3822C1782.37 70.3764 1780.88 70.1107 1779.56 69.5851C1778.24 69.0594 1777.12 68.2678 1776.19 67.2103C1775.27 66.1437 1774.6 64.8127 1774.17 63.2171C1773.74 61.6215 1773.66 60.1355 1773.93 58.7592C1774.2 57.3738 1774.77 56.1236 1775.65 55.0086C1776.53 53.8936 1777.69 52.9198 1779.14 52.0872C1780.6 51.2433 1782.29 50.5616 1784.23 50.0423C1786.17 49.523 1787.97 49.2674 1789.64 49.2757C1791.31 49.2725 1792.8 49.5349 1794.11 50.063C1795.42 50.591 1796.53 51.3895 1797.44 52.4585C1798.36 53.5185 1799.03 54.8462 1799.45 56.4418ZM1794.38 57.8005C1794.2 57.1064 1793.9 56.4469 1793.49 55.8222C1793.09 55.1861 1792.53 54.6691 1791.81 54.2714C1791.11 53.8713 1790.22 53.6304 1789.16 53.5487C1788.09 53.467 1786.81 53.6279 1785.3 54.0312C1784.29 54.3018 1783.43 54.6208 1782.7 54.9884C1781.98 55.347 1781.37 55.7408 1780.89 56.17C1780.4 56.5993 1780.02 57.0539 1779.75 57.5339C1779.47 58.005 1779.27 58.4871 1779.16 58.9801C1779.05 59.4642 1779.01 59.9539 1779.04 60.4492C1779.07 60.9331 1779.15 61.4004 1779.27 61.8512C1779.39 62.3109 1779.56 62.7631 1779.77 63.2077C1780 63.6499 1780.28 64.0571 1780.62 64.4294C1780.96 64.7927 1781.37 65.1084 1781.85 65.3766C1782.33 65.6447 1782.88 65.8437 1783.52 65.9734C1784.15 66.094 1784.87 66.1328 1785.68 66.0898C1786.48 66.0377 1787.39 65.8764 1788.4 65.6059C1789.91 65.2025 1791.1 64.6991 1791.98 64.0957C1792.86 63.4923 1793.51 62.8408 1793.92 62.1411C1794.34 61.4391 1794.57 60.7165 1794.6 59.9734C1794.64 59.2189 1794.57 58.4946 1794.38 57.8005ZM1817.59 47.2206C1817.19 47.1435 1816.67 47.0741 1816.04 47.0123C1815.4 46.9506 1814.7 46.9229 1813.92 46.9292C1813.13 46.9265 1812.3 46.9768 1811.41 47.0801C1810.51 47.1744 1809.62 47.3422 1808.71 47.5838C1807.99 47.777 1807.38 47.965 1806.88 48.1478C1806.39 48.3281 1805.97 48.5014 1805.64 48.6678C1805.32 48.8317 1805.07 48.991 1804.89 49.1457C1804.71 49.289 1804.58 49.4247 1804.5 49.5528C1804.42 49.681 1804.38 49.7995 1804.37 49.9083C1804.37 50.0147 1804.38 50.1085 1804.4 50.1896C1804.47 50.46 1804.67 50.6627 1805 50.7975C1805.32 50.9234 1805.74 51.0047 1806.25 51.0413C1806.76 51.069 1807.34 51.0716 1808 51.0491C1808.66 51.0177 1809.36 50.9856 1810.1 50.9529C1810.84 50.9087 1811.6 50.8777 1812.39 50.8599C1813.18 50.8307 1813.96 50.8403 1814.72 50.8887C1815.48 50.9347 1816.22 51.0321 1816.92 51.1809C1817.63 51.3208 1818.27 51.5352 1818.85 51.8243C1819.43 52.1133 1819.93 52.4921 1820.34 52.9605C1820.76 53.4289 1821.06 54.0102 1821.25 54.7043C1821.48 55.5967 1821.53 56.4052 1821.39 57.1298C1821.24 57.8544 1820.97 58.5088 1820.55 59.093C1820.15 59.6748 1819.63 60.1939 1819.01 60.6503C1818.39 61.0977 1817.71 61.4962 1816.98 61.8458C1816.27 62.1929 1815.52 62.4941 1814.75 62.7493C1813.99 63.0021 1813.25 63.2227 1812.55 63.4111C1810.71 63.9038 1808.97 64.2071 1807.31 64.3209C1805.68 64.4413 1804.2 64.4368 1802.88 64.3073L1801.69 59.8721C1803.11 60.2263 1804.66 60.3859 1806.34 60.3508C1808.03 60.3133 1809.78 60.053 1811.58 59.5699C1812.64 59.2849 1813.49 58.9989 1814.13 58.712C1814.78 58.4137 1815.26 58.1281 1815.6 57.8554C1815.93 57.5737 1816.13 57.311 1816.21 57.0675C1816.29 56.8239 1816.31 56.6075 1816.26 56.4182C1816.18 56.1207 1815.97 55.9 1815.64 55.7561C1815.31 55.6032 1814.89 55.5084 1814.38 55.4718C1813.86 55.4261 1813.28 55.419 1812.62 55.4504C1811.96 55.4729 1811.26 55.5107 1810.52 55.5639C1809.79 55.6056 1809.03 55.6444 1808.25 55.6802C1807.46 55.716 1806.69 55.7199 1805.93 55.692C1805.18 55.6526 1804.45 55.572 1803.75 55.4502C1803.05 55.3194 1802.41 55.1185 1801.83 54.8474C1801.26 54.5674 1800.76 54.2022 1800.35 53.7518C1799.94 53.2924 1799.64 52.7156 1799.45 52.0215C1799.23 51.2012 1799.19 50.4549 1799.32 49.7827C1799.45 49.1104 1799.7 48.5017 1800.07 47.9566C1800.46 47.4001 1800.93 46.9054 1801.5 46.4725C1802.08 46.0371 1802.71 45.6519 1803.38 45.3169C1804.06 44.9818 1804.75 44.6894 1805.47 44.4397C1806.18 44.19 1806.87 43.9769 1807.53 43.8006C1808.25 43.6074 1809 43.4454 1809.77 43.3146C1810.56 43.1814 1811.34 43.0834 1812.11 43.0205C1812.89 42.9486 1813.64 42.9066 1814.37 42.8943C1815.11 42.8796 1815.8 42.8884 1816.44 42.9207L1817.59 47.2206Z" fill="#292929"/>
<path d="M588.16 378.434L599.531 385.604L593.514 387.216L586.022 382.514L581.912 390.325L575.908 391.934L582.157 380.042L571.363 373.239L577.38 371.627L584.279 376.01L588.089 368.757L594.107 367.145L588.16 378.434ZM609.777 367.279L613.672 381.815L608.655 383.159L604.76 368.623L596.877 370.736L595.794 366.693L616.59 361.12L617.674 365.163L609.777 367.279ZM624.256 378.979L623.216 375.098L632.579 361.198L620.734 364.372L619.643 360.302L638.695 355.197L639.608 358.605L629.818 373.126L642.853 369.634L643.944 373.704L624.256 378.979Z" fill="#292929"/>
<line x1="317.289" y1="451.237" x2="478.599" y2="408.014" stroke="#2F2F2A" stroke-width="2.86695"/>
<line x1="737.522" y1="338.634" x2="898.832" y2="295.412" stroke="#2F2F2A" stroke-width="2.86695"/>
<line x1="1298.63" y1="186.285" x2="1459.94" y2="143.062" stroke="#2F2F2A" stroke-width="2.86695"/>
</g>
</svg>
