<svg width="143" height="37" viewBox="0 0 143 37" fill="none" xmlns="http://www.w3.org/2000/svg">
<path d="M16.0016 16.5164H77.337V5.61559C77.337 2.51419 74.8229 1.52588e-05 71.7215 1.52588e-05H21.6172C18.5158 1.52588e-05 16.0016 2.51419 16.0016 5.61559V16.5164Z" fill="#B9FD02"/>
<g filter="url(#filter0_b_7_34)">
<rect y="2" width="143" height="35" rx="7.48743" fill="#0D0D0D" fill-opacity="0.56"/>
<path d="M28.2761 19.4144V14.6187H29.826V22.4805H28.6468L25.2774 17.6736V22.4805H23.7275V14.6187H24.9068L28.2761 19.4144ZM36.1812 21.7842C35.6122 22.3532 34.9083 22.6378 34.0698 22.6378C33.2312 22.6378 32.5273 22.3532 31.9583 21.7842C31.3892 21.2152 31.1047 20.5113 31.1047 19.6727C31.1047 18.8416 31.3892 18.1416 31.9583 17.5725C32.5348 16.996 33.2386 16.7077 34.0698 16.7077C34.9009 16.7077 35.6047 16.996 36.1812 17.5725C36.7577 18.149 37.046 18.8491 37.046 19.6727C37.046 20.5038 36.7577 21.2077 36.1812 21.7842ZM32.9803 20.7846C33.2723 21.0766 33.6355 21.2226 34.0698 21.2226C34.504 21.2226 34.8672 21.0766 35.1592 20.7846C35.4512 20.4926 35.5972 20.122 35.5972 19.6727C35.5972 19.2235 35.4512 18.8529 35.1592 18.5609C34.8672 18.2688 34.504 18.1228 34.0698 18.1228C33.6355 18.1228 33.2723 18.2688 32.9803 18.5609C32.6958 18.8604 32.5535 19.231 32.5535 19.6727C32.5535 20.1145 32.6958 20.4851 32.9803 20.7846ZM44.5007 16.7077C45.2569 16.7077 45.9008 16.996 46.4324 17.5725C46.9715 18.149 47.2411 18.8491 47.2411 19.6727C47.2411 20.5113 46.9715 21.2152 46.4324 21.7842C45.9083 22.3532 45.2644 22.6378 44.5007 22.6378C43.7145 22.6378 43.108 22.3645 42.6812 21.8179V24.7268H41.2324V16.865H42.6812V17.5276C43.108 16.981 43.7145 16.7077 44.5007 16.7077ZM43.1193 20.8183C43.4113 21.1103 43.7819 21.2563 44.2311 21.2563C44.6804 21.2563 45.051 21.1103 45.343 20.8183C45.6425 20.5188 45.7923 20.137 45.7923 19.6727C45.7923 19.2085 45.6425 18.8304 45.343 18.5384C45.051 18.2389 44.6804 18.0891 44.2311 18.0891C43.7819 18.0891 43.4113 18.2389 43.1193 18.5384C42.8272 18.8304 42.6812 19.2085 42.6812 19.6727C42.6812 20.137 42.8272 20.5188 43.1193 20.8183ZM49.8914 16.865V17.8308C50.0187 17.4789 50.2358 17.2131 50.5428 17.0334C50.8498 16.8462 51.2017 16.7526 51.5985 16.7526V18.3699C51.1568 18.31 50.7599 18.3999 50.408 18.6395C50.0636 18.8716 49.8914 19.2572 49.8914 19.7963V22.4805H48.4426V16.865H49.8914ZM57.2016 21.7842C56.6326 22.3532 55.9288 22.6378 55.0902 22.6378C54.2516 22.6378 53.5478 22.3532 52.9787 21.7842C52.4097 21.2152 52.1251 20.5113 52.1251 19.6727C52.1251 18.8416 52.4097 18.1416 52.9787 17.5725C53.5552 16.996 54.2591 16.7077 55.0902 16.7077C55.9213 16.7077 56.6251 16.996 57.2016 17.5725C57.7782 18.149 58.0664 18.8491 58.0664 19.6727C58.0664 20.5038 57.7782 21.2077 57.2016 21.7842ZM54.0007 20.7846C54.2928 21.0766 54.6559 21.2226 55.0902 21.2226C55.5244 21.2226 55.8876 21.0766 56.1796 20.7846C56.4716 20.4926 56.6176 20.122 56.6176 19.6727C56.6176 19.2235 56.4716 18.8529 56.1796 18.5609C55.8876 18.2688 55.5244 18.1228 55.0902 18.1228C54.6559 18.1228 54.2928 18.2688 54.0007 18.5609C53.7162 18.8604 53.574 19.231 53.574 19.6727C53.574 20.1145 53.7162 20.4851 54.0007 20.7846ZM60.9205 16.865H64.0203V22.4805H62.5715V18.2576H60.9205V22.4805H59.4717V18.2576H58.6631V16.865H59.4717V16.8088C59.4717 15.2439 60.3515 14.4615 62.111 14.4615C62.4854 14.4615 62.9234 14.5139 63.4251 14.6187V15.944C62.886 15.8841 62.448 15.8541 62.111 15.8541C61.6917 15.8541 61.3885 15.9253 61.2013 16.0675C61.0141 16.2098 60.9205 16.4569 60.9205 16.8088V16.865ZM66.9701 22.4805H65.5213V14.2818H66.9701V22.4805ZM73.9342 20.268H69.7001C69.8872 20.9718 70.4151 21.3237 71.2837 21.3237C71.8377 21.3237 72.257 21.1365 72.5415 20.7622L73.7096 21.436C73.1555 22.2372 72.3394 22.6378 71.2612 22.6378C70.3327 22.6378 69.5877 22.357 69.0262 21.7954C68.4646 21.2339 68.1839 20.5263 68.1839 19.6727C68.1839 18.8341 68.4609 18.1303 69.015 17.5613C69.5615 16.9922 70.2728 16.7077 71.1489 16.7077C71.98 16.7077 72.6576 16.9922 73.1817 17.5613C73.7208 18.1303 73.9904 18.8341 73.9904 19.6727C73.9904 19.83 73.9716 20.0284 73.9342 20.268ZM69.6776 19.1449H72.5415C72.4592 18.778 72.2907 18.4972 72.0361 18.3025C71.7891 18.1079 71.4933 18.0105 71.1489 18.0105C70.7595 18.0105 70.4376 18.1116 70.183 18.3138C69.9284 18.5084 69.76 18.7855 69.6776 19.1449Z" fill="white"/>
<rect x="0.467965" y="2.46796" width="142.064" height="34.0641" rx="7.01947" stroke="url(#paint0_linear_7_34)" stroke-width="0.935929"/>
</g>
<defs>
<filter id="filter0_b_7_34" x="-22.4623" y="-20.4623" width="187.925" height="79.9246" filterUnits="userSpaceOnUse" color-interpolation-filters="sRGB">
<feFlood flood-opacity="0" result="BackgroundImageFix"/>
<feGaussianBlur in="BackgroundImage" stdDeviation="11.2312"/>
<feComposite in2="SourceAlpha" operator="in" result="effect1_backgroundBlur_7_34"/>
<feBlend mode="normal" in="SourceGraphic" in2="effect1_backgroundBlur_7_34" result="shape"/>
</filter>
<linearGradient id="paint0_linear_7_34" x1="-0.579728" y1="4.73432" x2="141.294" y2="8.78611" gradientUnits="userSpaceOnUse">
<stop stop-color="white" stop-opacity="0.67"/>
<stop offset="1" stop-color="#EEEEEE" stop-opacity="0"/>
</linearGradient>
</defs>
</svg>
